<svg viewBox="0 0 550 448" fill="none" xmlns="http://www.w3.org/2000/svg"><path d="M351.074 63.92l3.107-12.352-6.26-3.083a40.468 40.468 0 00-.339-5.468l6.148-3.27-3.484-12.245-7.697.51a40.225 40.225 0 00-2.642-4.046l4.044-6.475-9.136-8.863-6.837 4.585a40.784 40.784 0 00-3.899-2.039l.283-8.06L312.019 0l-3.687 7.502a39.726 39.726 0 00-4.321.109L300.207.449l-12.242 3.486.538 8.095a40.612 40.612 0 00-3.949 2.326l-6.593-4.123-8.856 9.142 4.192 6.275a40.932 40.932 0 00-2.566 4.433l-7.15-.251-3.106 12.35 6.091 3a40.608 40.608 0 00-.016 5.826l-5.627 2.99 3.486 12.249 6.048-.392a40.41 40.41 0 003.247 5.606l-3.002 4.805 9.146 8.854 4.612-3.085a40.958 40.958 0 006.035 3.356l-.185 5.243 12.328 3.114 2.365-4.823c2.335.125 4.676.047 6.997-.233l2.444 4.603 12.24-3.483-.373-5.606a40.647 40.647 0 005.66-3.641l4.714 2.947 8.859-9.145-3.438-5.157a41.034 41.034 0 002.767-5.507l6.201.218zm-39.107 1.108a17.444 17.444 0 01-18.456-5.952 17.466 17.466 0 015.721-26.38 17.445 17.445 0 0124.744 10.76 17.476 17.476 0 01-1.538 13.275 17.45 17.45 0 01-10.471 8.297z" fill="#BCD0E2"/><path d="M299.803 22.277a26.993 26.993 0 00-19.416 22.852 27 27 0 0013.673 26.692 26.967 26.967 0 0029.88-2.426 26.994 26.994 0 009.193-28.548 26.994 26.994 0 00-12.822-16.19 26.965 26.965 0 00-20.508-2.38zm13.241 46.535a21.383 21.383 0 01-27.17-18.842 21.4 21.4 0 0111.559-20.77 21.372 21.372 0 0123.602 2.74 21.395 21.395 0 014.832 26.705 21.383 21.383 0 01-12.823 10.167z" fill="#AEC4DB"/><path d="M478.703 50.922H304.109v169.313h174.594V50.922z" fill="#EDF4FC"/><path d="M395.679 70.047h-71.111v2.926h71.111v-2.926z" fill="#BCD0E2"/><path d="M328.161 173.902h-3.593v2.926h3.593v-2.926z" fill="#B0BFDE"/><path d="M384.426 180.939h-59.858v2.927h59.858v-2.927z" fill="#BCD0E2"/><path d="M408.341 173.902h-3.593v2.926h3.593v-2.926z" fill="#BDCFE8"/><path d="M464.606 180.939h-59.858v2.927h59.858v-2.927zM347.604 63.81h-23.036v2.925h23.036V63.81z" fill="#BCD0E2"/><path d="M437.936 78.648h-.149v68.925h.149V78.648zM409.857 78.648h-.146v68.925h.146V78.648zM381.787 78.648h-.146v68.925h.146V78.648zM353.715 78.648h-.147v68.925h.147V78.648z" fill="#C4D1E1"/><path opacity=".34" d="M437.861 78.648h-56.146v68.925h56.146V78.648z" fill="#fff"/><path d="M466.005 147.648H325.498V78.575h140.507v69.073zm-140.36-.146h140.213v-68.78H325.645v68.78z" fill="#C4D1E1"/><path d="M465.934 136.013H325.572v.147h140.362v-.147zM465.934 124.526H325.572v.145h140.362v-.145zM465.934 113.037H325.572v.147h140.362v-.147zM465.934 101.55H325.572v.147h140.362v-.147zM465.934 90.061H325.572v.147h140.362v-.147zM323.209 146.942c0 1.015-.376 1.575-1.036 1.575-.585 0-.979-.548-.987-1.533-.009-.986.419-1.552 1.035-1.552.617 0 .988.558.988 1.51zm-1.621.046c0 .776.239 1.216.606 1.216.419 0 .61-.482.61-1.243 0-.762-.187-1.219-.604-1.219-.354 0-.612.438-.612 1.246zM319.746 134.335l-.518.279-.078-.306.65-.35h.346v2.994h-.392l-.008-2.617zM323.209 135.419c0 1.013-.378 1.575-1.038 1.575-.583 0-.977-.547-.987-1.535-.011-.988.432-1.552 1.048-1.552.616 0 .977.562.977 1.512zm-1.621.046c0 .774.239 1.217.606 1.217.419 0 .61-.483.61-1.246 0-.764-.193-1.21-.612-1.21-.346 0-.604.419-.604 1.239zM318.871 125.417v-.247l.317-.309c.763-.725 1.106-1.111 1.111-1.562a.533.533 0 00-.591-.581 1.007 1.007 0 00-.629.252l-.128-.285c.235-.197.532-.305.838-.305a.858.858 0 01.352.043.85.85 0 01.501.477.833.833 0 01.061.349c0 .551-.398.996-1.029 1.604l-.237.21h1.34v.354h-1.906zM323.209 123.895c0 1.015-.378 1.575-1.038 1.575-.583 0-.977-.548-.987-1.535-.011-.988.432-1.552 1.048-1.552.616 0 .977.56.977 1.512zm-1.621.046c0 .776.239 1.216.606 1.216.419 0 .61-.482.61-1.246 0-.763-.193-1.22-.612-1.22-.346 0-.604.436-.604 1.258v-.008zM318.966 113.431c.2.119.428.184.66.189.52 0 .68-.331.678-.579 0-.419-.382-.598-.772-.598h-.226v-.302h.226c.294 0 .665-.153.665-.505 0-.239-.151-.451-.524-.451a1.096 1.096 0 00-.596.197l-.107-.293c.233-.152.505-.232.782-.231.587 0 .851.35.851.713a.74.74 0 01-.549.703.775.775 0 01.671.769c0 .478-.371.896-1.088.896-.273 0-.54-.072-.776-.21l.105-.298zM323.209 112.37c0 1.015-.378 1.575-1.038 1.575-.583 0-.977-.545-.987-1.533-.011-.988.432-1.554 1.048-1.554.616 0 .977.562.977 1.512zm-1.621.046c0 .776.239 1.219.606 1.219.419 0 .61-.485.61-1.246s-.186-1.219-.604-1.219c-.354 0-.612.432-.612 1.244v.002zM320.118 102.372v-.811h-1.388v-.262l1.334-1.907h.436v1.856h.419v.319h-.419v.812l-.382-.007zm0-1.13v-.992c0-.155 0-.313.013-.468h-.013a8.277 8.277 0 01-.249.441l-.728 1.015.977.004zM323.209 100.848c0 1.015-.378 1.575-1.038 1.575-.583 0-.977-.548-.987-1.536-.011-.987.432-1.552 1.048-1.552.616 0 .977.56.977 1.513zm-1.621.046c0 .776.239 1.216.606 1.216.419 0 .61-.482.61-1.244 0-.761-.186-1.218-.604-1.218-.354 0-.612.432-.612 1.246zM320.652 88.201h-1.138l-.115.768a1.76 1.76 0 01.245-.017c.224-.004.445.051.642.16a.858.858 0 01.419.767c0 .583-.464 1.02-1.111 1.02a1.466 1.466 0 01-.744-.185l.102-.306c.193.106.409.163.629.165a.66.66 0 00.709-.648c0-.386-.262-.663-.86-.663-.14.001-.28.013-.419.034l.193-1.433h1.427l.021.338zM323.209 89.323c0 1.015-.378 1.575-1.038 1.575-.583 0-.977-.547-.987-1.535-.011-.988.432-1.552 1.048-1.552.616 0 .977.562.977 1.512zm-1.621.046c0 .776.239 1.217.606 1.217.419 0 .61-.483.61-1.244s-.186-1.218-.604-1.218c-.354 0-.612.432-.612 1.245zM339.172 151.371l-.503.262-.073-.289.612-.327h.321v2.799h-.357v-2.445zM366.422 153.817v-.233l.298-.29c.712-.679 1.037-1.048 1.048-1.468a.495.495 0 00-.147-.406.507.507 0 00-.409-.139.954.954 0 00-.593.235l-.122-.266a1.23 1.23 0 01.793-.286.801.801 0 01.611.215.791.791 0 01.244.601c0 .516-.373.933-.962 1.502l-.224.21h1.257v.314l-1.794.011zM394.586 153.381c.191.113.407.173.629.176.486 0 .629-.309.629-.541 0-.393-.359-.56-.723-.56h-.21v-.284h.21c.274 0 .629-.144.629-.476 0-.222-.141-.419-.491-.419-.2.006-.394.07-.558.184l-.1-.276c.218-.14.472-.212.731-.21.552 0 .801.329.801.669a.69.69 0 01-.516.658.732.732 0 01.629.72c0 .447-.35.839-1.021.839a1.425 1.425 0 01-.727-.189l.088-.291zM423.745 153.816v-.763h-1.302v-.25l1.258-1.786h.419v1.74h.369v.296h-.39v.763h-.354zm0-1.048v-.946c0-.147 0-.292.013-.438h-.013a17.45 17.45 0 01-.233.419l-.685.95v.011l.918.004zM452.32 151.335h-1.067l-.106.72a1.58 1.58 0 01.228-.017c.211-.005.418.047.602.151a.8.8 0 01.4.717c0 .548-.436.957-1.048.957a1.382 1.382 0 01-.698-.172l.096-.288c.184.1.389.152.598.153a.618.618 0 00.458-.163.632.632 0 00.204-.443c0-.36-.245-.629-.805-.629a2.633 2.633 0 00-.386.032l.181-1.345h1.337l.006.327z" fill="#C4D1E1"/><path d="M325.731 148.437l-.319-.78 28.071-11.489 28.062-12.29 28.161-11.384h28.331l27.737-11.229.317.782-27.891 11.29h-28.33l-27.998 11.319-28.06 12.29-28.081 11.491z" fill="#B0BFDE"/><path d="M381.709 136.539l-28.067-11.484-27.911 11.421-.319-.78 28.23-11.554 28.079 11.491 27.809-10.568L437.596 90.5l.097-.04 28.073-12.2.333.776-27.974 12.158-28.081 34.58-.107.04-28.228 10.725z" fill="#BDCFE8"/><path d="M439.47 90.848a1.615 1.615 0 01-.993 1.486 1.608 1.608 0 11.993-1.486z" fill="#fff"/><path d="M437.861 92.876a2.026 2.026 0 01-1.875-1.254 2.034 2.034 0 011.481-2.768 2.027 2.027 0 012.423 1.994 2.033 2.033 0 01-2.029 2.028zm0-3.213a1.185 1.185 0 100 2.37 1.185 1.185 0 000-2.37z" fill="#BDCFE8"/><path d="M411.395 125.417a1.609 1.609 0 01-2.744 1.138 1.609 1.609 0 012.273-2.275c.302.301.471.711.471 1.137z" fill="#fff"/><path d="M409.787 127.449a2.027 2.027 0 01-1.99-2.426 2.024 2.024 0 011.594-1.595 2.03 2.03 0 11.396 4.021zm0-3.217a1.193 1.193 0 00-1.098.732 1.183 1.183 0 00.256 1.294 1.186 1.186 0 10.842-2.026z" fill="#BDCFE8"/><path d="M383.321 136.086a1.609 1.609 0 11-3.218 0 1.609 1.609 0 013.218 0z" fill="#fff"/><path d="M381.724 138.116a2.03 2.03 0 110-4.059 2.03 2.03 0 010 4.059zm0-3.215a1.187 1.187 0 00-1.161 1.417 1.183 1.183 0 002.146.427c.13-.195.2-.424.2-.659a1.189 1.189 0 00-1.185-1.185z" fill="#BDCFE8"/><path d="M355.251 124.599a1.601 1.601 0 01-.993 1.486 1.606 1.606 0 01-2.1-2.101 1.601 1.601 0 011.485-.993 1.608 1.608 0 011.608 1.608z" fill="#fff"/><path d="M353.635 126.63a2.03 2.03 0 110-4.06 2.03 2.03 0 010 4.06zm0-3.218a1.19 1.19 0 00-1.098.732 1.184 1.184 0 00.256 1.294 1.189 1.189 0 001.293.258 1.186 1.186 0 00-.451-2.284z" fill="#BDCFE8"/><path d="M410.749 113.056a1.607 1.607 0 11-3.214.001 1.607 1.607 0 013.214-.001z" fill="#fff"/><path d="M409.142 115.086a2.03 2.03 0 110-4.059 2.03 2.03 0 010 4.059zm0-3.215a1.187 1.187 0 00-1.161 1.416 1.186 1.186 0 001.615.864 1.187 1.187 0 00.383-1.932 1.189 1.189 0 00-.837-.348z" fill="#B0BFDE"/><path d="M439.442 113.056a1.609 1.609 0 01-2.745 1.137 1.612 1.612 0 01.246-2.476 1.61 1.61 0 012.03.202 1.611 1.611 0 01.469 1.137z" fill="#fff"/><path d="M437.838 115.086a2.03 2.03 0 110-4.06 2.03 2.03 0 010 4.06zm0-3.215a1.182 1.182 0 00-1.095.732 1.186 1.186 0 102.279.453 1.184 1.184 0 00-1.184-1.185z" fill="#B0BFDE"/><path d="M245.69 52.338H101.613V220.13H245.69V52.338z" fill="#EDF4FC"/><path d="M190.229 70.391H123.1v2.762h67.129v-2.762zM144.846 64.502H123.1v2.764h21.746v-2.764z" fill="#BCD0E2"/><path d="M230.61 197.885H125.66V78.858h104.95v119.027zm-104.811-.128h104.683V78.99H125.788l.011 118.767z" fill="#C4D1E1"/><path d="M230.547 180.773H125.725v.126h104.822v-.126zM230.547 163.787H125.725v.126h104.822v-.126zM230.547 146.803H125.725v.126h104.822v-.126zM230.547 129.817H125.725v.126h104.822v-.126zM230.547 112.834H125.725v.126h104.822v-.126zM230.547 95.85H125.725v.126h104.822v-.126z" fill="#C4D1E1"/><path d="M195.671 78.927h-.128V197.82h.128V78.927zM160.725 78.927h-.125V197.82h.125V78.927zM120.346 84.397l-.088-.089 5.423-5.425.088.09-5.423 5.424zM120.346 101.38l-.088-.09 5.423-5.421.088.088-5.423 5.423zM120.346 118.366l-.088-.09 5.423-5.423.088.09-5.423 5.423zM120.346 135.35l-.088-.09 5.423-5.424.088.09-5.423 5.424zM120.346 152.336l-.088-.09 5.423-5.424.088.088-5.423 5.426zM120.346 169.32l-.088-.088 5.423-5.426.088.09-5.423 5.424zM120.346 186.304l-.088-.089 5.423-5.423.088.09-5.423 5.422zM115.487 186.729l-.536.29-.08-.317.673-.361h.356v3.087h-.402l-.011-2.699zM119.067 187.851c0 1.049-.39 1.63-1.073 1.63-.604 0-1.013-.566-1.021-1.588-.009-1.021.446-1.604 1.073-1.604s1.021.579 1.021 1.562zm-1.677.046c0 .804.247 1.259.629 1.259.419 0 .629-.497.629-1.286s-.193-1.258-.629-1.258c-.367 0-.629.446-.629 1.285zM114.578 172.564v-.258l.327-.317c.788-.75 1.145-1.149 1.151-1.615a.559.559 0 00-.162-.449.552.552 0 00-.452-.155c-.242.01-.473.102-.654.263l-.132-.296c.245-.204.553-.314.872-.313a.878.878 0 01.675.235.866.866 0 01.27.663c0 .571-.419 1.03-1.065 1.657l-.245.229h1.388v.346l-1.973.01zM119.067 170.987c0 1.049-.39 1.628-1.073 1.628-.604 0-1.013-.565-1.021-1.586-.009-1.021.446-1.604 1.073-1.604s1.021.578 1.021 1.562zm-1.677.046c0 .803.247 1.259.629 1.259.419 0 .629-.502.629-1.288 0-.787-.193-1.259-.629-1.259-.367.003-.629.449-.629 1.288zM114.68 155.22c.207.122.442.189.683.195.537 0 .702-.342.696-.598 0-.432-.394-.619-.794-.619h-.233v-.312h.233c.301 0 .687-.157.687-.524 0-.246-.157-.464-.543-.464a1.148 1.148 0 00-.616.21l-.109-.304c.24-.156.521-.239.807-.237.608 0 .882.36.882.736a.761.761 0 01-.568.728.805.805 0 01.688.792c0 .495-.384.927-1.126.927a1.584 1.584 0 01-.803-.209l.116-.321zM119.067 154.123c0 1.048-.39 1.629-1.073 1.629-.604 0-1.013-.566-1.021-1.587-.009-1.022.446-1.605 1.073-1.605s1.021.579 1.021 1.563zm-1.677.048c0 .801.247 1.258.629 1.258.419 0 .629-.499.629-1.287 0-.789-.193-1.259-.629-1.259-.367.009-.629.447-.629 1.288zM115.869 138.84v-.839h-1.431v-.275l1.375-1.971h.45v1.919h.432v.327h-.432v.839h-.394zm0-1.168v-1.032c0-.159 0-.321.015-.485h-.015c-.094.183-.17.315-.255.458l-.755 1.048 1.01.011zM119.067 137.259c0 1.048-.39 1.629-1.073 1.629-.604 0-1.013-.564-1.021-1.585-.009-1.022.446-1.607 1.073-1.607s1.021.581 1.021 1.563zm-1.677.048c0 .803.247 1.258.629 1.258.419 0 .629-.499.629-1.288 0-.788-.193-1.258-.629-1.258-.367 0-.629.447-.629 1.288zM116.422 119.234h-1.178l-.12.795c.084-.013.169-.019.254-.019.232-.004.461.053.664.166a.873.873 0 01.44.793c0 .604-.477 1.049-1.146 1.049a1.5 1.5 0 01-.772-.191l.105-.319c.202.112.429.171.661.172a.662.662 0 00.272-.036.664.664 0 00.398-.364.675.675 0 00.059-.269c0-.399-.268-.684-.885-.684a3.46 3.46 0 00-.419.032l.21-1.481h1.467l-.01.356zM119.067 120.395c0 1.048-.39 1.629-1.073 1.629-.604 0-1.013-.566-1.021-1.588-.009-1.021.446-1.604 1.073-1.604s1.021.579 1.021 1.563zm-1.677.046c0 .805.247 1.258.629 1.258.419 0 .629-.499.629-1.288 0-.788-.193-1.258-.629-1.258-.367.002-.629.449-.629 1.288zM116.342 102.314a1.583 1.583 0 00-.315.019 1.26 1.26 0 00-1.071 1.097h.015a.93.93 0 01.746-.355c.545 0 .931.394.931.996a1.044 1.044 0 01-.281.765 1.035 1.035 0 01-.746.324c-.661 0-1.09-.514-1.09-1.317a1.942 1.942 0 01.519-1.391c.271-.257.619-.418.99-.457.1-.015.201-.023.302-.023v.342zm-.118 1.78c0-.44-.253-.706-.629-.706a.688.688 0 00-.597.379.35.35 0 00-.048.187c.01.507.243.883.679.883.35 0 .593-.3.593-.743h.002zM119.067 103.53c0 1.049-.39 1.63-1.073 1.63-.604 0-1.013-.567-1.021-1.586-.009-1.019.446-1.606 1.073-1.606s1.021.589 1.021 1.562zm-1.677.048c0 .801.247 1.259.629 1.259.419 0 .629-.5.629-1.288 0-.789-.193-1.258-.629-1.258-.367 0-.629.446-.629 1.287zM116.582 85.15v.274l-1.344 2.813h-.431l1.337-2.727v-.01h-1.509v-.35h1.947zM119.067 86.666c0 1.048-.39 1.63-1.073 1.63-.604 0-1.013-.567-1.021-1.588-.009-1.022.446-1.605 1.073-1.605s1.021.58 1.021 1.563zm-1.677.048c0 .803.247 1.258.629 1.258.419 0 .629-.499.629-1.287 0-.789-.193-1.259-.629-1.259-.367 0-.629.447-.629 1.288zM136.758 204.097v-.256l.327-.319c.786-.751 1.142-1.149 1.149-1.615a.553.553 0 00-.615-.602 1.055 1.055 0 00-.654.26l-.134-.293c.246-.204.555-.316.874-.315a.86.86 0 01.676.235.869.869 0 01.27.663c0 .57-.42 1.032-1.063 1.657l-.247.228h1.385v.346l-1.968.011zM141.239 202.52c0 1.048-.39 1.629-1.074 1.629-.603 0-1.012-.564-1.02-1.585-.009-1.022.446-1.607 1.073-1.607s1.021.592 1.021 1.563zm-1.677.048c0 .803.247 1.258.629 1.258.419 0 .629-.499.629-1.287 0-.789-.195-1.259-.629-1.259-.371 0-.629.447-.629 1.288zM142.527 201.4l-.537.289-.082-.319.675-.36h.354v3.087h-.402l-.008-2.697zM146.053 201.01v.274l-1.344 2.813h-.432l1.34-2.727h-1.51v-.346l1.946-.014zM172.402 204.097v-.256l.327-.319c.789-.751 1.145-1.149 1.151-1.615a.552.552 0 00-.614-.602 1.052 1.052 0 00-.654.26l-.134-.293c.245-.205.555-.316.874-.315a.878.878 0 01.675.236.882.882 0 01.27.662c0 .57-.419 1.032-1.062 1.657l-.248.228h1.386v.346l-1.971.011zM176.883 202.52c0 1.048-.388 1.629-1.073 1.629-.602 0-1.01-.564-1.019-1.585-.008-1.022.447-1.607 1.071-1.607.625 0 1.021.592 1.021 1.563zm-1.677.048c0 .803.248 1.258.629 1.258.419 0 .629-.499.629-1.287 0-.789-.195-1.259-.629-1.259-.361 0-.627.447-.627 1.288h-.002zM178.181 201.4l-.539.289-.08-.319.673-.36h.357v3.087h-.411V201.4zM179.66 203.312a.882.882 0 01.612-.826v-.013a.764.764 0 01-.49-.694c0-.488.419-.822.956-.822.597 0 .897.376.897.759a.79.79 0 01-.51.724v.013c.386.153.629.419.629.799 0 .536-.459.897-1.048.897-.656 0-1.046-.384-1.046-.837zm1.662-.018c0-.376-.262-.554-.679-.674a.673.673 0 00-.555.629.562.562 0 00.167.442.572.572 0 00.443.165.571.571 0 00.442-.138.574.574 0 00.187-.424h-.005zm-1.148-1.536c0 .311.232.476.589.571a.611.611 0 00.469-.56.474.474 0 00-.319-.478.482.482 0 00-.203-.026.495.495 0 00-.496.294.488.488 0 00-.04.199zM208.045 204.097v-.256l.327-.319c.79-.751 1.144-1.149 1.151-1.615a.553.553 0 00-.614-.602 1.05 1.05 0 00-.654.26l-.135-.293c.246-.205.555-.316.875-.315a.873.873 0 01.881.538.887.887 0 01.064.36c0 .57-.419 1.032-1.063 1.657l-.247.228h1.385v.346l-1.97.011zM212.53 202.52c0 1.048-.39 1.629-1.073 1.629-.604 0-1.011-.564-1.021-1.585-.011-1.022.446-1.607 1.071-1.607s1.023.592 1.023 1.563zm-1.677.048c0 .803.247 1.258.629 1.258.419 0 .629-.499.629-1.287 0-.789-.195-1.259-.629-1.259-.363 0-.629.447-.629 1.288zM213.818 201.4l-.539.289-.08-.319.675-.36h.355v3.087h-.411V201.4zM215.584 203.803c.112.006.225.001.337-.015.241-.03.467-.135.646-.299.227-.218.371-.508.407-.82h-.013a.916.916 0 01-.727.331.904.904 0 01-.663-.274.905.905 0 01-.249-.672 1.063 1.063 0 01.637-1.01c.13-.056.27-.086.411-.087.629 0 1.021.514 1.021 1.3a1.957 1.957 0 01-.531 1.45 1.546 1.546 0 01-.899.419c-.127.022-.255.03-.384.025l.007-.348zm.151-1.776a.587.587 0 00.351.604.593.593 0 00.242.05.698.698 0 00.608-.323.274.274 0 00.038-.151c0-.528-.195-.931-.629-.931-.357 0-.61.315-.61.751z" fill="#C4D1E1"/><path opacity=".34" d="M230.547 95.913H125.725v16.984h104.822V95.913zM230.547 129.882H125.725v16.984h104.822v-16.984zM230.547 163.85H125.725v16.986h104.822V163.85z" fill="#fff"/><path d="M172.829 95.913h-47.104v2.712h47.104v-2.712z" fill="#B0BFDE"/><path d="M206.641 103.048h-80.916v2.714h80.916v-2.714z" fill="#D1DBEA"/><path d="M154.565 110.185h-28.84v2.712h28.84v-2.712z" fill="#BDCFE8"/><path d="M210.754 129.882h-85.029v2.712h85.029v-2.712z" fill="#B0BFDE"/><path d="M160.665 137.018h-34.94v2.711h34.94v-2.711z" fill="#D1DBEA"/><path d="M195.607 144.154h-69.882v2.71h69.882v-2.71z" fill="#BDCFE8"/><path d="M160.665 164.07h-34.94v2.712h34.94v-2.712z" fill="#B0BFDE"/><path d="M195.607 171.207h-69.882v2.712h69.882v-2.712z" fill="#D1DBEA"/><path d="M183.403 178.344h-57.678v2.712h57.678v-2.712z" fill="#BDCFE8"/><path d="M260.376 276.088c-1.364-.839-6.02 4.348-7.995 8.939-3.88 8.999-4.875 13.978-6.381 23.909-2.385 15.742-6.42 40.744-7.756 51.383-1.201 9.591-5.058 20.935.705 19.333-.086-13.167 5.966-33.018 9.47-43.443 11.989-35.602 16.15-57.556 11.957-60.121zM232.991 284.536a568.562 568.562 0 011.562-7.456c1.784-3.565 3.341-5.44 4.53-5.161 4.496 1.048 8.569 21.392-5.559 69.728-.709 2.429-10.19 44.55-10.125 43.516 1.635-27.046 2.027-63.18 9.592-100.627z" fill="#E9D6B8"/><path d="M222.933 388.278c-2.438 4.937-5.473 8.416-6.775 7.76-1.301-.657-.385-5.168 2.055-10.105 2.44-4.937 5.473-8.414 6.775-7.76 1.302.654.385 5.17-2.055 10.105z" fill="#387BFF"/><path d="M223.68 385.35c-1.258 3.865-3.905 6.659-5.209 6.013-1.304-.646-.824-3.958 1.134-7.515 2.477-4.498 3.423-5.788 3.639-9.018.195-3.02 5.136-4.004.436 10.52zM248.949 377.85s-1.306-.56-4.914-1.246c-2.106-.398-3.708-.385-4.465-1.178-1.257-1.307-.559-4.476-1.169-4.331-2.985.684-4.019 7.665-2.275 8.536 1.744.87 11.578-.287 12.387-.35.809-.063.683-1.617.436-1.431z" fill="#E9D6B8"/><path d="M246.896 377.215c.556 2.351-6.653 1.403-8.517.788a21.343 21.343 0 00-2.922-.763c-.075 0-.144-.015-.222-.017a1.227 1.227 0 00-.027.17c0 1.29-.566 3.01 1.496 3.01h12.926c10.567 0-2.748-3.243-2.734-3.188z" fill="#387BFF"/><path d="M267.295 104.602l2.868-19.163c-2.306-4.56-6.044-7.747-10.622-8.435-8.835-1.324-17.424 7.162-19.189 18.953-1.765 11.791 3.969 22.415 12.798 23.741 6.182.923 12.24-2.959 15.931-9.402a6.985 6.985 0 01-1.786-5.694z" fill="#163F59"/><path d="M230.492 105.074c-1.201 2.837 1.061 6.514 5.06 8.213l9.113 3.88c3.999 1.7 8.219.782 9.42-2.058l10.997-25.876c1.209-2.838-1.048-6.502-5.052-8.215l-9.11-3.87c-3.996-1.705-8.215-.778-9.421 2.056l-11.007 25.87z" fill="#163F59"/><path d="M256.987 121.852c5.84 2.517 8.762 1.739 4.301 3.62-2.144 2.63-29.557-1.03-31.053-4.432-.248-.572 10.883-2.21 10.942-2.634.683-4.935.95-9.108-.419-14.628.056-.43.385-.776.731-.768 2.08.063 4.172.08 6.26.139.343.018 4.427.916 3.521 2.877-.457 5.375-.461 13.148 5.717 15.826z" fill="#E9D6B8"/><path d="M258.069 109.01c.144-.159.291-.325.434-.486.04-.053.086-.097.13-.155l.526-.63.132-.178c.128-.168.251-.335.375-.51l.21-.283c.102-.151.209-.295.306-.451.069-.1.136-.209.209-.312.128-.21.248-.403.378-.61.09-.153.182-.307.274-.47.093-.164.168-.285.246-.42.077-.134.159-.291.239-.444.079-.153.136-.252.209-.39a8.92 8.92 0 01.168-.309c.899-1.805 2.949-10.97 2.725-15.704-.027-.573-.457-1.143-1.258-1.294-4.771-.875-18.631-5.76-18.853 8.15v.013c0 .031-.13 1.197-.174 1.736v.138c-.04.544-.072 1.083-.082 1.61V99.702a.126.126 0 000 .054c.195 6.646 2.515 11.697 6.331 12.559 2.222.505 4.611-.493 6.8-2.588l.048-.053c.166-.157.331-.325.495-.495.037-.069.088-.121.132-.17zM178.569 116.871s-1.023.489-1.451-.285c-.702-1.288-.958-4.21-1-5.244-.052-1.164.629-6.69.629-6.69a6.508 6.508 0 01.862 3.958c-.39 3.236.96 8.261.96 8.261z" fill="#E9D6B8"/><path d="M178.464 116.112c-.929-1.888-.447-4.266.796-6.936 1.182-2.517.323-4.117.323-4.117s-.933 1.546-2.354 5.663c-.394 1.157-.759 2.441-.709 3.653.141 3.664 4.335 6.581 1.944 1.737zM217.743 139.259c-5.333 3.941-10.062 17.8-13.716 26.579-2.066 4.95-1.303 8.683-1.303 8.683s1.809 11.6 15.619-20.017c3.461-7.917 1.4-16.73-.6-15.245z" fill="#E9D6B8"/><path d="M178.502 113.809l-.893.57-.601 3.566s1.614 6.329 3.079 8.504 7.385 19.27 8.364 20.031c1.736 1.349 5.169-3.29 5.169-3.29s-7.527-11.955-9.051-15.789c-1.524-3.833-1.815-10.052-2.356-11.579a41.39 41.39 0 01-1.258-3.985s-1.325.69-.107 4.86c.317 1.101-1.084.872-1.084.872l-1.262-3.76z" fill="#E9D6B8"/><path d="M227.735 159.242l36.59-.308 4.475-41.87-43.419 4.127 2.354 38.051z" fill="#387BFF"/><path d="M266.418 283.972c-17.994 2.818-21.245.419-41.925-2.517-1.953.031-10.332-20.105-4.435-73.216 1.218-10.942 9.485-19.733 7.592-49.441 12.298-.242 24.596-.479 36.894-.711-4.895 26.992 24.344 31.188 1.874 125.885z" fill="#387BFF"/><path d="M267.648 170.196l-5.199-36.704 1.258-14.805a5.436 5.436 0 013.169-1.583l.826-.107c3.203-.386 6.079 2.307 6.436 6.032l4.081 50.257-10.571-3.09zM209.132 174.703l16.598-32.036 5.067-18.73a5.81 5.81 0 00-2.726-2.112l-.777-.296a5.832 5.832 0 00-7.507 3.41l-17.709 36.589 7.054 13.175z" fill="#387BFF"/><path d="M178.239 118.341s-1.01-3.181-.503-4.782c.361-1.111 2.895-6.067 2.895-6.067a6.532 6.532 0 01-.551 4.012c-1.48 2.913-1.841 6.837-1.841 6.837zM179.772 117.576s.929.209 1.239-.078a5.33 5.33 0 01-.09.873c-.061.551.243 4.301.243 4.301s-.742-2.666-1.125-3.389c-.241-.459-.499-1.577-.726-2.517a5.344 5.344 0 010-.537l.459 1.347z" fill="#E9D6B8"/><path d="M180.856 116.703c-.82-2.8-.489-4.031-.183-4.538.183.662.512 1.724 1.034 3.196.188.524.348 1.625.536 2.997.04.258-.947.505-1.333 2.764-.073.407-.82-2.043-.943-3.532.369.015 1.134-.044.889-.887z" fill="#E9D6B8"/><path d="M250.502 102.767a6.993 6.993 0 01-1.779-5.697l2.865-19.158c-.109-.21-.235-.42-.354-.63l-.31-.134c-3.996-1.705-8.216-.778-9.421 2.056l-11.009 25.87c-.931 2.189.222 4.867 2.626 6.763.476.135.96.24 1.449.315 6.177.931 12.235-2.945 15.933-9.385z" fill="#163F59"/><path d="M237.981 131.969l38.275-3.829-13.068 49.85-35.254 3.76 10.047-49.781z" fill="#FEAF3C"/><path d="M259.291 153.63c-4.315-6.678-3.124-11.495-3.885-14.744-.761-3.249-1.048-6.841-1.058-6.806-1.64 3.146-.319 5.361-.462 6.98-.142 1.619.101 1.063-1.603-1.206-.969-1.298-.329-5.061-.237-7.537.084-2.148-.419-3.132-.419-3.132a32.601 32.601 0 00-1.424 6.466c-.419 4.023-.075 8.452.155 9.413.42 1.753 3.145 6.304 5.599 9.24 2.749 3.314 6.455 6.135 3.334 1.326z" fill="#E9D6B8"/><path d="M273.995 170.465c-9.4-11.288-21.87-24.153-21.87-24.153l17.114 29.331s9.458.466 4.756-5.178z" fill="#E9D6B8"/><path d="M275.85 167.398s6.062 8.153.6 11.173c-3.101 1.715-5.593.629-7.377-1.861-3.312-4.639-6.817-10.079-6.817-10.079l5.903-7.733 7.691 8.5z" fill="#387BFF"/><path d="M250.204 140.291s-1.767-5.977-1.66-7.269c.073-.893 1.136-5.033 1.136-5.033s.826 2.145.497 3.834c-.329 1.688.027 8.468.027 8.468z" fill="#E2C59C"/><path d="M192.679 139.889s-7.521 3.292-6.58 6.583c.941 3.291 9.869 29.152 15.512 31.51 5.643 2.357 8.459-5.166 8.93-7.054.472-1.887-17.862-31.039-17.862-31.039z" fill="#387BFF"/><path d="M75.924 325.548c-1.99 0-5.138-.457-7.894-2.856-3.964-3.452-5.683-9.591-5.107-18.247.39-5.845 2.688-11.744 5.121-18.017 4.094-10.533 8.735-22.471 6.306-38.259l4.51-.69c2.615 16.988-2.477 30.085-6.563 40.608-2.404 6.18-4.481 11.522-4.82 16.662-.466 7.018.745 12.02 3.508 14.472 2.616 2.307 5.89 1.719 6.029 1.696l.914 4.472c-.661.116-1.332.17-2.004.159z" fill="#0054DF"/><path d="M110.892 361.754l4.444 6.776-37.313 11.954s-2.486-2.38 6.666-7.168c10.661-5.581 26.203-11.562 26.203-11.562z" fill="#88BDDA"/><path d="M117.522 361.754l-4.442 6.776 37.313 11.954s2.493-2.384-6.662-7.172c-10.665-5.577-26.209-11.558-26.209-11.558z" fill="#88BDDA"/><path d="M118.104 341.592h-7.793v27.771h7.793v-27.771z" fill="#88BDDA"/><path d="M110.395 363.182l3.803 6.466-31.934 11.411s-2.135-2.276 5.7-6.848c9.126-5.325 22.431-11.029 22.431-11.029zM118.019 363.182l-3.8 6.466 31.938 11.411s2.132-2.276-5.704-6.848c-9.123-5.325-22.434-11.029-22.434-11.029z" fill="#ACD5F4"/><path d="M85.878 383.626a2.708 2.708 0 11-5.21-1.037 2.711 2.711 0 012.501-1.673 2.709 2.709 0 012.709 2.71zM147.759 383.626a2.71 2.71 0 11-5.42.005 2.71 2.71 0 015.42-.005z" fill="#001F46"/><path d="M79.321 383.626a2.71 2.71 0 11-5.42.005 2.71 2.71 0 015.42-.005zM154.315 383.626a2.712 2.712 0 01-3.237 2.658 2.708 2.708 0 01-1.973-3.695 2.713 2.713 0 012.502-1.673 2.712 2.712 0 012.708 2.71z" fill="#367082"/><path d="M116.958 331.416h-5.702v9.986h5.702v-9.986z" fill="#0054DF"/><path d="M121.24 326.14a5.567 5.567 0 01-5.564 5.564h-3.144a5.564 5.564 0 010-11.126h3.144a5.553 5.553 0 015.14 3.432 5.56 5.56 0 01.424 2.13z" fill="#0054DF"/><path d="M156.491 321.052c.136-.655.21-4.761.21-5.466 0-4.494-2.901-8.135-6.482-8.135H77.993c-3.582 0-6.483 3.641-6.483 8.135 0 .705.08 4.811.21 5.466h84.771z" fill="#8CC3FF"/><path d="M70.854 323.256c0 1.374.803 2.487 1.794 2.487h82.932c.989 0 1.794-1.113 1.794-2.487 0-1.376-.805-2.492-1.794-2.492H72.64c-.991 0-1.794 1.116-1.794 2.492h.008z" fill="#0054DF"/><path d="M74.889 279.324c1.781.134 13.101.331 15.055.354 12.393.149 23.069-2.177 23.662-5.23a105.901 105.901 0 00.319-38.403c-.527-3.052-11.364-5.378-24.017-5.225-1.991.025-13.546.227-15.361.359a103.95 103.95 0 01.342 48.145z" fill="#8CC3FF"/><path d="M73.185 231.177c-1.385.015-2.354.677-2.163 1.468a103.79 103.79 0 01.388 45.211c-.174.799.786 1.456 2.142 1.468 1.358.017 2.614-.629 2.786-1.418a103.962 103.962 0 00-.295-45.318c-.19-.801-1.468-1.434-2.858-1.417v.006z" fill="#0054DF"/><path d="M72.634 279.301c.364.115 2.819.21 3.247.21 2.7.033 5.483-2.349 6.02-5.355a104.196 104.196 0 00-.174-37.818c-.562-3.005-3.413-5.383-6.165-5.35-.436 0-2.935.099-3.312.21a103.886 103.886 0 01.384 48.103z" fill="#69ADFE"/><path d="M147.785 243.14s.084 3.146 15.397 3.171c15.313.025 37.787-3.756 37.787-3.756l-35.318-3.337s-13.552-.634-17.866 3.922z" fill="#E2C59C"/><path d="M188.931 243.67c7.278.231 10.288 3.985 13.139 5.202 2.851 1.216 5.695 3.045 5.668 3.011-1.524-3.169-3.872-3.33-5.016-4.375-1.145-1.044-.855-.532 1.74-.641 1.478-.061 3.983 2.617 5.808 4.117 1.577 1.296 2.583 1.428 2.583 1.428a32.174 32.174 0 00-4.138-4.878c-2.821-2.641-6.337-4.891-7.175-5.258-1.539-.657-6.4-.978-9.882-.63-3.92.403-7.97 1.848-2.727 2.024z" fill="#E2C59C"/><path d="M201.154 242.41s5.528 1.594 6.482 2.359c.666.533 3.417 3.616 3.417 3.616s-2.073-.405-3.241-1.573c-1.168-1.168-6.658-4.402-6.658-4.402z" fill="#E2C59C"/><path d="M154.721 236.72s-14.119.401-13.435 8.794c.383 4.767 3.544 6.527 7.81 6.332 7.932-.372 16.927-1.221 16.927-1.221l4.451-12.854-15.753-1.051z" fill="#FEAF3C"/><path d="M151.729 237.775l-12.315-43.5s-1.813-6.375-5.207-5.304c-4.893 1.535-2.675 6.777-2.356 9.857.647 6.263-.021 8.956 3.918 24.136 2.427 9.362 4.439 20.121 6.628 26.296 1.505 4.255 4.528-1.661 8.844-3.194 8.052-2.87.488-8.291.488-8.291z" fill="#FEAF3C"/><path d="M127.832 180.228c-2.119 9.469-11.676 15.387-21.342 13.212-9.665-2.174-15.784-11.598-13.66-21.067 2.123-9.469 11.673-15.39 21.341-13.213 9.668 2.177 15.782 11.598 13.661 21.068z" fill="#282723"/><path d="M144.35 170.509a13.494 13.494 0 01-5.941 8.445 13.48 13.48 0 01-10.17 1.769l-1.887-6.993a13.47 13.47 0 01-8.451-5.942 13.486 13.486 0 01-1.768-10.182l1.107-4.937a13.493 13.493 0 0116.109-10.218l3.291.741a13.476 13.476 0 018.442 5.942 13.504 13.504 0 011.769 10.173l-2.501 11.202z" fill="#282723"/><path d="M143.425 149.956a26.44 26.44 0 01-1.149 3.638c-3.222 8.159-9.8 13.423-15.587 12.959a41.111 41.111 0 01-4.151 9.782c-1.794 3.102-6.488 5.749-6.488 5.749-2.274 5.692 20.499 24.748 21.474 24.257 2.067-1.049-1.637-14.75-5.362-18.991-1.75-1.988-3.528-4.333-3.564-5.663-.132-4.7 1.359-5.698 3.623-7.852 3.966-2.991 8.508-1.917 8.508-1.917a1.523 1.523 0 001.218-.239 9.48 9.48 0 001.029-2.659l2.432-10.858a9.545 9.545 0 00-1.983-8.206z" fill="#E9D6B8"/><path d="M119.812 271.069s5.834 5.288 7.478 5.757c2.192.629 8.341-2.03 8.341-2.03s-1.698-27.411-1.065-38.271 3.18-14.004 2.891-17.359c-.474-5.363 3.88-8.1 2.595-12.19-1.285-4.089-4.516-18.783-4.738-16.742-1.886 17.374-8.552 3.985-9.884 1.887-.729-1.164-5.618 78.948-5.618 78.948z" fill="#387BFF"/><path d="M131.998 185.574s7.72 5.662 7.615 8.278c-.104 2.615 3.983 10.348 2.329 21.966-1.886 13.27-2.599 22.179-2.209 30.644.39 8.464 4.289 15.799 4.421 26.216.105 8.162-1.765 8.89-1.765 8.89s-3.601 1.336-6.626-1.468c-3.025-2.804-2.489-30.725-2.032-37.751.457-7.026 2.652-23.588 3.153-28.426.629-6.003-.321-11.858-.629-13.585-1.073-5.945-2.35-9.588-3.241-11.778-.15-.375-2.157-1.982-2.282-2.278-.545-1.264.635-1.417 1.266-.708z" fill="#FEAF3C"/><path d="M122.725 204.091c-2.216 9.89-12.196 16.071-22.29 13.808-10.093-2.263-16.484-12.114-14.28-22.013 2.206-9.899 12.197-16.071 22.292-13.811 10.096 2.261 16.489 12.133 14.278 22.016z" fill="#282723"/><path d="M161.268 364.841l-3.502 26.876 15.141 6.951 8.404 1.774-14.915-11.143 4.88-24.249-10.008-.209z" fill="#E9D6B8"/><path d="M156.775 395.767l3.283.858 2.207-1.986 12.096 5.872 10.739 2.46s.13-.839-.229-1.294c-1.35-1.701-8.861-5.495-8.861-5.495s-.121 2.494-1.19 2.561c-1.069.067-10.337-4.631-12.479-5.941-3.689-2.257-4.379-3.658-4.66-3.484-.755.461-.906 6.449-.906 6.449z" fill="#161711"/><path d="M197.814 327.461l12.024 22.904 16.64-.816 8.276-2.3-18.373-3.008-10.033-19.569-8.534 2.789z" fill="#E9D6B8"/><path d="M210.827 354.419l3.308-.753 1.048-2.781 14.919-.209 8.905-2.024s-1.078-1.166-1.742-1.435c-1.983-.799-9.014-1.212-9.014-1.212s.74 1.948-.176 2.517c-.916.568-11.167.889-13.674.711-4.316-.298-5.572-1.221-5.742-.938-.459.743 2.168 6.124 2.168 6.124z" fill="#161711"/><path d="M109.925 258.964l8.977 3.905 3.901 11.713 57.732-9.507s5.87-1.814 9.624 7.477c5.329 13.23 18.891 54.353 18.891 54.353l-8.594 8.981-26.918-46.461s-55.177 25.893-73.368 20.303c-6.983-2.145-12.314-14.471-11.32-26.941a160.272 160.272 0 012.725-18.742l18.35-5.081z" fill="#194866"/><path d="M117.732 309.422l44.153-3.177-3.796 68.161 13.02.42 9.617-79.827s-2.595-11.881-11.026-10.09c-8.431 1.791-28.831 17.429-51.968 24.513z" fill="#163F59"/><path d="M98.853 323.937s19.889-27.759 24.107-42.602c5.031-17.717 1.782-38.799 2.224-45.949.815-13.158.629-38.542.809-41.7.18-3.159-2.237-6.399-2.237-6.399s-2.456-8.047-6.917-7.454c-3.903.533-9.943 5.986-13.733 8.503-3.702 2.47-3.287 48.839-3.471 51.173-.669 8.423-5.993 16.602-9.469 24.834-8.185 19.4-8.185 41.107-8.185 41.107s3.23 15.625 16.872 18.487z" fill="#FEAF3C"/><path d="M112.191 250.143s.485 3.385 18.63 1.386c18.145-1.999 44.36-9.033 44.36-9.033l-42.268 1.061s-16.152 1.11-20.722 6.586z" fill="#E9D6B8"/><path d="M161.033 245.289c8.66-.71 12.668 2.937 16.192 3.872 3.523.935 7.108 2.529 7.085 2.498-2.18-3.209-4.985-3.077-6.467-4.054-1.482-.977-1.075-.457 1.989-.921 1.742-.264 5.031 2.295 7.373 3.67 2.021 1.187 3.234 1.2 3.234 1.2a35.662 35.662 0 00-5.486-4.704c-3.662-2.475-8.093-4.44-9.133-4.719-1.886-.505-7.701-.21-11.785.629-4.612.944-9.24 3.041-3.002 2.529z" fill="#E9D6B8"/><path d="M175.373 242.316s6.739.989 7.966 1.692c.853.485 4.475 3.442 4.475 3.442s-2.498-.162-4.025-1.259c-1.526-1.097-8.416-3.875-8.416-3.875z" fill="#E9D6B8"/><path d="M125.704 251.044l-23.104-8.286s1.607 13.395 2.144 18.485c.537 5.091-.805 12.595 3.48 13.129 4.285.535 6.427-.266 2.41 2.681-4.016 2.946-2.676 5.358-.804 7.235 1.871 1.877-4.283 22.773-4.283 22.773s.61.31 2.411 1.34c5.706-9.018 12.787-19.27 14.996-27.055 2.857-10.084 3.044-21.237 2.75-30.302z" fill="#FEAF3C"/><path d="M119.649 242.307l-2.018-42.912s-2.312-8.991-5.692-11.059c-3.997-2.45-9.491 2.097-9.491 2.097s-2.816 6.699-.927 38.345c1.258 21.161 3.214 32.119 13.244 30.574 9.36-1.445 19.931-3.538 19.931-3.538l3.755-14.44-18.802.933z" fill="#FEAF3C"/><path d="M155.729 252.97l-.036-.067.036-2.129h88.092v2.129a.097.097 0 010 .067l-.224.396c-1.132 1.846-3.163 2.179-5.49 2.179h-76.662c-2.326 0-4.356-.333-5.49-2.179l-.226-.396z" fill="#D0DEE6"/><path d="M176.959 253.328a.091.091 0 010 .061l-.21.319a3.565 3.565 0 01-1.289 1.084h-13.395c-2.239 0-4.192-.266-5.28-1.757l-.21-.325c-.014-.018-.028-.036-.04-.055l.025-1.049h20.409l-.01 1.722zM232.868 251.267h-44.016v1.503h44.016v-1.503z" fill="#B6C2C9"/><path d="M177.447 250.696l11.425-43.307c.304-1.147 1.467-2.072 2.612-2.072h61.805c1.14 0 1.824.925 1.522 2.072l-11.42 43.307h-65.944z" fill="#D7DFE2"/><path d="M212.396 228.008c-.585 2.21.74 4.004 2.935 4.004 2.195 0 4.473-1.794 5.058-4.004.585-2.211-.734-4.008-2.945-4.008-2.212 0-4.467 1.795-5.048 4.008z" fill="#B6C2C9"/><path d="M312.39 404.318h9.018l-14.877-144.15h-13.072l18.931 144.15z" fill="#93CEF5"/><path d="M294.328 266.812l5.735 43.655 6.801-47.049-.334-3.25h-11.426l-.776 6.644z" fill="#86BBD8"/><path d="M229.861 404.318h9.016L224 260.168h-13.072l18.933 144.15z" fill="#93CEF5"/><path d="M211.799 266.812l5.733 43.655 6.806-47.049-.337-3.25h-11.427l-.775 6.644z" fill="#86BBD8"/><path d="M135.196 404.318h-9.018l14.879-144.15h13.074l-18.935 144.15z" fill="#93CEF5"/><path d="M153.257 266.812l-17.497 44.485 4.962-47.879.335-3.25h11.427l.773 6.644z" fill="#86BBD8"/><path d="M237.142 255.487H128.436v8.424h108.706v-8.424z" fill="#73A9FF"/><path d="M355.552 255.487H232.115v8.424h123.437v-8.424z" fill="#8CC3FF"/><path d="M119.741 177.109s5.89 7.76 6.961 15.004c1.071 7.244-1.872 46.35-1.872 46.35l-2.096-34.377 1.557-5.264-2.674-.535s-2.411-13.397-4.287-15.541c-1.876-2.143-2.142-2.936-2.142-2.936l4.553-2.701zM128.596 181.683s7.745 17.139 8.014 25.702c.268 8.563-2.679 30.279-2.679 30.279l5.37-34.84-2.14-3.484 1.606-.537s-5.612-12.598-6.161-13.127c-3.14-3.024-4.01-3.993-4.01-3.993z" fill="#FEAF3C"/><path d="M312.081 394.905l-1.405 7.309h-7.45s-.419-1.036-1.048-1.036c-.532 0-1.218 1.036-1.939 1.036h-18.956s-.336-1.537.077-2.068c.21-.272 1.468-.742 2.287-.979 3.849-1.08 14.865-4.461 16.77-8.14 2.348-4.477 11.664 3.878 11.664 3.878z" fill="#161711"/><path d="M309.953 303.346s2.132 11.938 3.903 27.194c1.306 11.201 1.34 43.204-.725 65.435-.126 1.361-14.255-2.781-14.255-2.781s-5.154-62.203-6.334-76.131c-1.181-13.928 8.936-22.395 17.411-13.717z" fill="#163F59"/><path d="M333.758 381.724c-.566-.68-.155-2.469-.155-2.469s9.81-1.094 12.965-.346c.822.191 2.206.894 3.509 1.649.21.124.606.879.824 1.002.392.235.6-.161.935.049.876.553 1.488.983 1.501 1.048.862 4.501-.283 6.317-.283 6.317s-8.075 2.517-9.915.839c-4.681-4.241-8.159-6.6-9.381-8.089z" fill="#161711"/><path d="M334.459 313.776s-7.815-4.568-5.824 7.687c4.805 29.571 9.224 51.234 11.293 61.051.803 3.813 2.033 3.209 2.033 3.209l8.981 1.468 4.532-3.091-8.385-66.826-12.63-3.498z" fill="#163F59"/><path d="M298.849 315.689c1.18 1.535 41.394 21.87 43.251 21.87h33.06c1.859 0 15.303-1.967 18.212-10.805 3.082-9.343 0-25.989 0-25.989 0-1.936-1.505-3.501-3.354-3.501h-41.193c-1.857 0-5.603 1.565-5.603 3.501l-39.994-1.273s-13.133 4.809-4.379 16.197z" fill="#194866"/><path d="M374.953 325.586h-37.846c-.402 0-33.078-8.918-33.441-9.018l3.941 12.701c0 1.933 32.636 8.292 34.494 8.292h33.059c1.86 0 15.303-1.967 18.212-10.805.942-2.852 1.304-6.388 1.361-9.92-4.731 7.091-17.829 8.75-19.78 8.75z" fill="#163F59"/><path d="M360.908 206.268l-1.786-8.075s-6.289.44-7.509-2.649c-2.471-6.191-.404-16.088 1.082-18.875 4.245-7.895 6.039-21.724 25.87-10.726 7.546 4.195-4.105 24.461-4.973 28.852-.868 4.392 1.713 9.438 1.713 9.438l-4.639 3.188-9.758-1.153zM328.195 261.715l34.011 12.079s-40.105 2.883-40.248.549c-.855-12.812 6.237-12.628 6.237-12.628z" fill="#E9D6B8"/><path d="M396.354 214.132s6.767 3.209 11.634 29.264c4.868 26.054 1.768 25.062 1.768 25.062l-.887 5.933-12.645 1.049-6.833-22.493 6.963-38.815z" fill="#0253A2"/><path d="M396.77 214.197l-16.657-6.889-4.597-3.964-17.705-.388-3.1 4.656-13.726 5.426s-3.388 4.853-.44 22.877c3.263 19.972-.055 71.643-.055 71.643l56.035.801s-4.623-84.468.245-94.162z" fill="#0253A2"/><path d="M345.401 213.084s-3.09-3.146-10.609 5.388c-12.833 14.54-19.042 32.575-20.367 36.073-1.325 3.498-2.828 12.101 2.425 17.902 4.008 4.44 7.88 2.794 7.88 2.794l12.256-9.581-3.938-1.994-2.688-.199s8.4-10.197 15.041-21.445c6.641-11.248 0-28.938 0-28.938z" fill="#0253A2"/><path d="M358.289 179.003s2.245-1.259 2.589.31c.343 1.569-.866 5.034-1.887 5.348-1.021.315-1.373 4.558-1.373 4.558l2.754 4.721h13.963s4.312-1.733 4.662-4.562c.351-2.829 3.776-22.797 3.776-22.797l-9.825-4.719s-5.176-2.36-8.804-3.301c-5.555-1.452-6.725 1.258-6.547 2.672.178 1.413-1.555 1.573-3.796 1.573-2.241 0-5.004 1.568-3.797 2.516.504.39-1.725 1.634-.838 3.134 1.258 2.145 5.5 2.841 5.848 6.291.156 1.578.866 6.766 3.275 4.256z" fill="#194866"/><path d="M317.37 350.078c-.132-.629-.21-4.601-.21-5.285 0-4.342 2.805-7.861 6.268-7.861h69.826c3.458 0 6.265 3.519 6.265 7.861 0 .684-.077 4.654-.209 5.285h-81.94z" fill="#8CC3FF"/><path d="M400.158 352.211c0 1.325-.776 2.401-1.732 2.401h-80.177c-.956 0-1.733-1.076-1.733-2.401 0-1.332.777-2.41 1.733-2.41h80.177c.956 0 1.732 1.078 1.732 2.41z" fill="#0253A2"/><path d="M367.572 389.425l-4.293 6.541 36.056 11.559s2.406-2.307-6.44-6.936c-10.297-5.384-25.323-11.164-25.323-11.164z" fill="#88BDDA"/><path d="M361.167 389.425l4.291 6.541-36.055 11.559s-2.409-2.307 6.437-6.936c10.301-5.384 25.327-11.164 25.327-11.164z" fill="#88BDDA"/><path d="M368.139 369.933h-7.535v26.845h7.535v-26.845z" fill="#88BDDA"/><path d="M368.056 390.803l-3.675 6.25 30.867 11.032s2.065-2.2-5.509-6.622c-8.821-5.144-21.683-10.66-21.683-10.66zM360.685 390.803l3.675 6.25-30.874 11.032s-2.06-2.2 5.513-6.622c8.821-5.144 21.686-10.66 21.686-10.66z" fill="#ACD5F4"/><path d="M391.756 410.568a2.622 2.622 0 001.62 2.417 2.609 2.609 0 001.512.147 2.626 2.626 0 001.34-.718 2.62 2.62 0 00-3.708-3.701 2.622 2.622 0 00-.764 1.855zM331.939 410.568a2.623 2.623 0 001.619 2.417 2.617 2.617 0 003.568-1.911 2.625 2.625 0 00-1.113-2.688 2.62 2.62 0 00-3.307.326 2.617 2.617 0 00-.767 1.856zM398.096 410.568a2.622 2.622 0 003.133 2.568 2.614 2.614 0 002.057-2.061 2.615 2.615 0 00-1.116-2.69 2.62 2.62 0 00-4.074 2.183zM325.602 410.568a2.622 2.622 0 003.132 2.569 2.625 2.625 0 001.909-3.575 2.625 2.625 0 00-3.425-1.419 2.613 2.613 0 00-1.418 1.421 2.598 2.598 0 00-.198 1.004zM367.222 360.099h-5.511v9.654h5.511v-9.654z" fill="#0253A2"/><path d="M357.576 354.996a5.385 5.385 0 001.573 3.802 5.358 5.358 0 003.8 1.576h3.033a5.385 5.385 0 003.802-1.575 5.388 5.388 0 001.575-3.803 5.39 5.39 0 00-1.574-3.804 5.377 5.377 0 00-3.803-1.575h-3.033a5.37 5.37 0 00-5.373 5.375v.004z" fill="#0253A2"/><path d="M328.753 350.078c-.135-.629-.21-4.601-.21-5.285 0-4.342 2.805-7.861 6.268-7.861h69.819c3.461 0 6.266 3.519 6.266 7.861 0 .684-.078 4.654-.21 5.285h-81.933z" fill="#69ADFE"/><path d="M411.543 352.211c0 1.325-.778 2.401-1.734 2.401h-80.177c-.956 0-1.734-1.076-1.734-2.401 0-1.332.778-2.41 1.734-2.41h80.183c.956 0 1.734 1.078 1.734 2.41h-.006z" fill="#0063CB"/><path d="M402.913 295.274a3.479 3.479 0 01-1.005 2.473 3.47 3.47 0 01-2.464 1.027h-65.977c-1.928 0-3.823-1.552-4.167-3.473a123.48 123.48 0 010-43.128c.344-1.926 2.237-3.471 4.167-3.473h65.977a3.457 3.457 0 012.465 1.027 3.468 3.468 0 011.004 2.475c-.125 14.35-.125 28.707 0 43.072z" fill="#8CC3FF"/><path d="M406.75 295.27a3.505 3.505 0 01-3.503 3.504H337.27c-1.926 0-3.808-1.552-4.135-3.473a129.831 129.831 0 010-43.124c.329-1.923 2.209-3.48 4.135-3.477h65.977a3.506 3.506 0 013.503 3.504v43.066z" fill="#69ADFE"/><path d="M346.623 354.786c10.154-34.017-9.224-68.037-.887-102.055.44-1.802-.683-3.264-2.618-3.264h-1.182c-1.933 0-3.95 1.468-4.39 3.264-8.326 34.018 11.043 68.038.887 102.055h8.19zM404.406 354.786c10.156-34.017-9.224-68.037-.885-102.055.438-1.802-.681-3.264-2.618-3.264h-1.182c-1.933 0-3.95 1.468-4.39 3.264-8.326 34.018 11.043 68.038.885 102.055h8.19z" fill="#0063CB"/><path d="M521.195 89.512l-.334 1.166a3.863 3.863 0 01-.4.92l.333-1.167c.173-.288.308-.597.401-.919z" fill="#8F8F8F"/><path d="M520.794 90.43l-.333 1.169c-.197.328-.436.629-.711.895l.331-1.168c.276-.266.516-.567.713-.895z" fill="#949494"/><path d="M520.076 91.326l-.331 1.168a5.599 5.599 0 01-1.241.896l.335-1.166a5.656 5.656 0 001.237-.898z" fill="#999"/><path d="M518.844 92.224l-.336 1.166a8.858 8.858 0 01-3.828.962c-.47.016-.941.007-1.41-.027l.333-1.168c.47.035.942.044 1.413.027a8.905 8.905 0 003.828-.96z" fill="#9E9E9E"/><path d="M513.604 93.157l-.333 1.168a13.954 13.954 0 01-2.054-.308l.333-1.17c.676.156 1.363.26 2.054.31z" fill="#999"/><path d="M511.55 92.847l-.333 1.17a13.949 13.949 0 01-1.602-.47l.334-1.166c.524.187 1.058.343 1.601.466z" fill="#949494"/><path d="M509.948 92.381l-.333 1.166c-.507-.18-1.003-.39-1.484-.63l.333-1.167c.482.238.978.448 1.484.629" fill="#8F8F8F"/><path d="M508.464 91.746l-.336 1.164a12.644 12.644 0 01-1.189-.676l.334-1.168c.383.247.78.472 1.188.675" fill="#8A8A8A"/><path d="M507.275 91.07l-.333 1.168a3.657 3.657 0 00-.319-.178l.333-1.168c.111.054.21.115.319.178z" fill="#8A8A8A"/><path d="M506.956 90.892l-.333 1.168a4.404 4.404 0 00-.455-.195l.331-1.168c.157.059.31.124.457.195z" fill="#8F8F8F"/><path d="M506.501 90.697l-.332 1.168a4.15 4.15 0 00-.48-.14l.334-1.169c.162.037.321.084.478.14z" fill="#949494"/><path d="M506.034 90.556l-.334 1.169a3.654 3.654 0 00-.587-.088l.336-1.169c.197.014.392.043.585.088z" fill="#999"/><path d="M505.437 90.468l-.336 1.168a3.352 3.352 0 00-.383 0 2.69 2.69 0 00-1.159.29l.331-1.168a2.71 2.71 0 011.161-.288 2.96 2.96 0 01.386 0" fill="#9E9E9E"/><path d="M503.891 90.75l-.331 1.168a1.63 1.63 0 00-.365.264l.334-1.168c.108-.104.23-.193.362-.264z" fill="#999"/><path d="M503.527 91.022l-.333 1.168a1.284 1.284 0 00-.21.264l.334-1.168c.058-.097.128-.185.209-.264z" fill="#949494"/><path d="M503.318 91.278l-.333 1.168a.994.994 0 00-.118.27l.331-1.165c.028-.096.068-.188.12-.273z" fill="#8F8F8F"/><path d="M509.101 106.332l-.334 1.168-19.394.845.333-1.168 19.395-.845z" fill="#ADADAD"/><path d="M489.705 107.171l-.333 1.168a2.55 2.55 0 00-.954.275l.333-1.166c.297-.154.621-.248.954-.277z" fill="#9E9E9E"/><path d="M488.753 107.454l-.333 1.166a1.655 1.655 0 00-.369.269l.333-1.169c.11-.106.234-.195.369-.266z" fill="#999"/><path d="M488.383 107.72l-.333 1.169a1.277 1.277 0 00-.21.264l.333-1.168c.059-.097.129-.186.21-.265z" fill="#949494"/><path d="M488.172 107.985l-.334 1.168a1.17 1.17 0 00-.117.272l.333-1.168c.028-.095.067-.187.118-.272z" fill="#8F8F8F"/><path d="M479.711 110.317l-.336 1.17a1.25 1.25 0 00-.065-.839 2.448 2.448 0 00-.884-1.023l.333-1.166c.386.25.693.605.885 1.023.118.264.141.56.067.839" fill="#858585"/><path d="M478.761 108.453l-.334 1.166a3.943 3.943 0 00-.452-.267l.333-1.168c.157.078.309.168.453.269z" fill="#8A8A8A"/><path d="M478.307 108.184l-.333 1.168a4.003 4.003 0 00-.447-.191l.336-1.168c.151.056.3.119.444.191z" fill="#8F8F8F"/><path d="M477.864 107.993l-.335 1.168a4.67 4.67 0 00-.478-.14l.333-1.168c.162.038.323.085.48.14z" fill="#949494"/><path d="M477.384 107.853l-.333 1.168a4.113 4.113 0 00-.604-.09l.334-1.169c.203.016.404.046.603.091z" fill="#999"/><path d="M476.779 107.762l-.333 1.169h-.237l.333-1.166h.237" fill="#9E9E9E"/><path d="M457.145 108.599l-.333 1.166-15.726-37.669.333-1.168 15.726 37.671z" fill="gray"/><path d="M476.542 107.754l-.331 1.166-19.399.845.334-1.166 19.396-.845z" fill="#ADADAD"/><path d="M493.371 68.665l5.898 14.119c.516.906 1.854 1.577 3.145 1.53.838-.035 1.425-.34 1.712-.781.95-1.531 2.986-2.582 5.734-2.7 4.775-.167 9.68 2.42 11.091 5.804 1.411 3.382-1.228 6.342-5.939 6.547a13.694 13.694 0 01-7.741-2.114 4.032 4.032 0 00-2.224-.608c-1.338.055-2.097.822-1.849 1.75l5.903 14.12-19.395.839c-1.278.132-1.987.961-1.58 1.93.241.576.838 1.069 1.553 1.38 2.486 1.048 4.524 2.751 5.36 4.744 1.422 3.41-1.234 6.34-5.938 6.547-4.773.166-9.683-2.42-11.098-5.805-.838-1.99-.266-3.815 1.281-5.033a1.212 1.212 0 00.363-1.468c-.403-.969-1.767-1.712-3.103-1.722l-19.398.839-15.722-37.67 51.947-2.248z" fill="#FEAF3C"/><path d="M495.275 118.1l-.332 1.166a3.926 3.926 0 01-.402.923l.333-1.168c.173-.289.307-.598.401-.921z" fill="#8F8F8F"/><path d="M494.874 119.021l-.333 1.168a4.417 4.417 0 01-.713.898l.333-1.169c.277-.266.516-.568.713-.897z" fill="#949494"/><path d="M494.162 119.918l-.333 1.169a5.624 5.624 0 01-1.241.897l.331-1.168a5.608 5.608 0 001.243-.898z" fill="#999"/><path d="M492.919 120.816l-.331 1.168a8.873 8.873 0 01-3.821.961c-.463.016-.926.007-1.388-.027l.333-1.169c.463.035.927.045 1.39.03a8.897 8.897 0 003.817-.963z" fill="#9E9E9E"/><path d="M487.713 121.749l-.334 1.169a13.985 13.985 0 01-2.065-.311l.336-1.168c.678.156 1.368.26 2.063.31z" fill="#999"/><path d="M485.65 121.433l-.336 1.168a14.115 14.115 0 01-1.628-.476l.333-1.168c.534.19 1.078.349 1.631.476z" fill="#949494"/><path d="M484.024 120.963l-.333 1.168a14.11 14.11 0 01-1.503-.642l.333-1.168c.488.243.99.458 1.503.642z" fill="#8F8F8F"/><path d="M482.517 120.321l-.334 1.168a12.63 12.63 0 01-1.537-.908l.336-1.168c.489.339 1.002.643 1.535.908z" fill="#8A8A8A"/><path d="M480.981 119.413l-.336 1.166c-1.37-.952-2.429-2.137-2.974-3.439a4.285 4.285 0 01-.237-2.861l.335-1.166a4.281 4.281 0 00.235 2.86c.545 1.301 1.604 2.484 2.977 3.44z" fill="#858585"/><g style="mix-blend-mode:multiply"><path d="M425.721 367.924c-38.571-.502-158.115-2.71-230.674-9.438-134.54-12.466-244.36 8.444-172.137 32.149 20.183 6.625-37.893 46.491 104.513 55.368 125.009 7.788 252.386-9.228 314.035-16.526 61.648-7.299 90.079-20.21 103.277-26.025 11.607-5.116 15.833-33.779-119.014-35.528z" fill="#E9F6FF"/></g></svg>